<svg width="21" height="20" viewBox="0 0 21 20" fill="none" xmlns="http://www.w3.org/2000/svg">
<g clip-path="url(#clip0_104_339)">
<path d="M1.33331 19.5453C1.33331 19.2943 1.53682 19.0908 1.78785 19.0908H19.2121C19.4631 19.0908 19.6666 19.2943 19.6666 19.5453C19.6666 19.7964 19.4631 19.9999 19.2121 19.9999H1.78785C1.53682 19.9999 1.33331 19.7964 1.33331 19.5453Z" fill="#AEDADE"/>
<path d="M1.33331 13.3333C1.33331 12.8731 1.70641 12.5 2.16665 12.5H3.83331C4.29355 12.5 4.66665 12.8731 4.66665 13.3333V17.5C4.66665 17.9603 4.29355 18.3333 3.83331 18.3333H2.16665C1.70641 18.3333 1.33331 17.9603 1.33331 17.5V13.3333Z" fill="#FF4C4D"/>
<path opacity="0.3" d="M1.33331 12.4999C1.33331 12.2698 1.51986 12.0833 1.74998 12.0833C1.9801 12.0833 2.16665 12.2698 2.16665 12.4999V18.3333C2.16665 18.5633 1.9801 18.7499 1.74998 18.7499C1.51986 18.7499 1.33331 18.5633 1.33331 18.3333V12.4999Z" fill="white"/>
<path d="M6.33331 9.16659C6.33331 8.70634 6.70641 8.33325 7.16665 8.33325H8.83331C9.29356 8.33325 9.66665 8.70634 9.66665 9.16659V17.4999C9.66665 17.9602 9.29356 18.3333 8.83331 18.3333H7.16665C6.70641 18.3333 6.33331 17.9602 6.33331 17.4999V9.16659Z" fill="#FFE279"/>
<path d="M11.3333 4.16659C11.3333 3.70635 11.7064 3.33325 12.1666 3.33325H13.8333C14.2936 3.33325 14.6666 3.70635 14.6666 4.16659V17.4999C14.6666 17.9602 14.2936 18.3333 13.8333 18.3333H12.1666C11.7064 18.3333 11.3333 17.9602 11.3333 17.4999V4.16659Z" fill="#16DE7E"/>
<path d="M16.3333 0.833333C16.3333 0.373097 16.7064 0 17.1666 0H18.8333C19.2936 0 19.6666 0.373096 19.6666 0.833333V17.5C19.6666 17.9603 19.2936 18.3333 18.8333 18.3333H17.1666C16.7064 18.3333 16.3333 17.9603 16.3333 17.5V0.833333Z" fill="#2192E4"/>
<path opacity="0.3" d="M6.33331 8.33317C6.33331 8.10305 6.51986 7.9165 6.74998 7.9165C6.9801 7.9165 7.16665 8.10305 7.16665 8.33317V18.3332C7.16665 18.5633 6.9801 18.7498 6.74998 18.7498C6.51986 18.7498 6.33331 18.5633 6.33331 18.3332V8.33317Z" fill="white"/>
<path opacity="0.3" d="M11.3333 3.33317C11.3333 3.10305 11.5199 2.9165 11.75 2.9165C11.9801 2.9165 12.1666 3.10305 12.1666 3.33317V18.3332C12.1666 18.5633 11.9801 18.7498 11.75 18.7498C11.5199 18.7498 11.3333 18.5633 11.3333 18.3332V3.33317Z" fill="white"/>
<path opacity="0.3" d="M16.3333 -8.15094e-05C16.3333 -0.2302 16.5199 -0.416748 16.75 -0.416748C16.9801 -0.416748 17.1666 -0.2302 17.1666 -8.14497e-05V18.3333C17.1666 18.5633 16.9801 18.7499 16.75 18.7499C16.5199 18.7499 16.3333 18.5633 16.3333 18.3333V-8.15094e-05Z" fill="white"/>
</g>
<defs>
<clipPath id="clip0_104_339">
<rect width="20" height="20" fill="white" transform="translate(0.5)"/>
</clipPath>
</defs>
</svg>
