<svg width="20" height="20" viewBox="0 0 20 20" fill="none" xmlns="http://www.w3.org/2000/svg">
<path d="M2.11767 9.75392C2.11767 9.75392 2.90783 10.9148 4.56392 11.8973C4.56392 11.8973 3.36451 1.76051 11.1794 0C9.17726 7.34847 13.7263 9.42083 15.3846 5.53852C18.1538 9.23583 16.0513 12.4615 16.0513 12.4615C17.1868 12.6251 18.1406 11.3846 18.1406 11.3846C18.1491 11.5374 18.1538 11.6912 18.1538 11.8462C18.1538 16.3494 14.5033 20 10 20C5.49681 20 1.84622 16.3494 1.84622 11.8462C1.84622 11.1228 1.94091 10.4217 2.11767 9.75392Z" fill="#FF6536"/>
<path d="M18.1406 11.3846C18.1406 11.3846 17.1867 12.6251 16.0512 12.4615C16.0512 12.4615 18.1538 9.23583 15.3846 5.53852C13.7263 9.42083 9.17725 7.34847 11.1794 0C10.7609 0.0942967 10.3684 0.212773 10 0.352266V20C14.5033 20 18.1538 16.3494 18.1538 11.8462C18.1538 11.6912 18.1491 11.5374 18.1406 11.3846Z" fill="#FF421D"/>
<path d="M6.42395 16.4237C6.42395 18.3986 8.02497 19.9997 9.99992 19.9997C11.9748 19.9997 13.5758 18.3986 13.5758 16.4237C13.5758 15.3667 13.1172 14.4168 12.388 13.7621C11.0054 15.6404 9.03517 12.7911 10.5707 10.7104C10.5707 10.7104 6.42395 11.2301 6.42395 16.4237Z" fill="#FBBF00"/>
<path d="M13.5759 16.4237C13.5759 15.3667 13.1173 14.4168 12.3882 13.7621C11.0056 15.6404 9.03533 12.7911 10.5708 10.7104C10.5708 10.7104 10.3455 10.7388 10 10.8478V19.9997C11.9749 19.9997 13.5759 18.3986 13.5759 16.4237Z" fill="#FFA900"/>
</svg>
