<svg width="21" height="20" viewBox="0 0 21 20" fill="none" xmlns="http://www.w3.org/2000/svg">
<g clip-path="url(#clip0_104_305)">
<path d="M7.98694 15.3331C6.05218 15.4404 4.53048 17.2412 4.10583 17.7951C4.87351 18.2747 5.88416 18.7122 6.96197 18.6527C8.93419 18.5434 10.4834 16.747 10.8729 16.2529C10.1004 15.7435 9.07728 15.2729 7.98694 15.3331Z" fill="#FFC943"/>
<path d="M11.7702 11.5733C9.83544 11.6807 8.31374 13.4814 7.8891 14.0353C8.65677 14.5149 9.66736 14.9525 10.7452 14.8929C12.7174 14.7837 14.2666 12.9873 14.6561 12.4933C13.8835 11.9839 12.8604 11.5131 11.7702 11.5733Z" fill="#FFC943"/>
<path d="M15.551 7.81457C13.6165 7.92174 12.0948 9.7225 11.6701 10.2764C12.4378 10.756 13.4483 11.1937 14.5261 11.1342C16.4984 11.0248 18.0476 9.22842 18.4371 8.73433C17.6644 8.225 16.6415 7.75416 15.551 7.81457Z" fill="#FFC943"/>
<path d="M5.17799 12.5412C5.23668 11.4936 4.7963 10.5085 4.30425 9.75024C3.78669 10.1563 2.01434 11.6852 1.90541 13.6265C1.84776 14.6611 2.25626 15.6336 2.7189 16.3865C3.29515 15.9468 5.07114 14.4452 5.17799 12.5412Z" fill="#FFC943"/>
<path d="M8.9609 8.77959C9.01957 7.73201 8.57922 6.74693 8.08703 5.98877C7.56961 6.39476 5.79726 7.92366 5.68833 9.86492C5.63055 10.8998 6.03918 11.8721 6.50182 12.6249C7.07807 12.1853 8.85398 10.6836 8.9609 8.77959Z" fill="#FFC943"/>
<path d="M12.7418 5.02165C12.8007 3.97395 12.3602 2.98887 11.8681 2.23071C11.3507 2.6367 9.57824 4.16568 9.46932 6.10686C9.41165 7.14162 9.82007 8.11419 10.2827 8.867C10.8592 8.42725 12.6352 6.92556 12.7418 5.02165Z" fill="#FFC943"/>
<path d="M15.2927 13.5508C15.3266 13.5127 15.3546 13.4685 15.3748 13.4196C15.444 13.2534 15.4113 13.0623 15.2905 12.9284C15.267 12.9025 15.1004 12.7198 14.8213 12.4689C17.0938 12.2956 18.7722 10.1962 19.0734 9.79217C19.108 9.75308 19.1365 9.70792 19.1569 9.65808C19.2245 9.49242 19.1912 9.303 19.0712 9.16967C18.9838 9.07267 16.8987 6.79017 14.4126 6.92809C13.9473 6.95384 13.5063 7.0651 13.0961 7.22954C13.2614 6.82162 13.3734 6.38328 13.3993 5.92076C13.5379 3.44912 11.2424 1.37624 11.1444 1.28904C11.0106 1.16989 10.8198 1.13755 10.6532 1.20457C10.6051 1.22397 10.5615 1.25075 10.5234 1.28335C10.1296 1.57277 8.00116 3.24575 7.82586 5.51439C7.57352 5.23687 7.38977 5.07127 7.36361 5.04785C7.22879 4.92805 7.03671 4.89596 6.86948 4.96466C6.8225 4.98393 6.77981 5.01032 6.74259 5.04216C6.34815 5.33183 4.21753 7.00702 4.04458 9.27742C3.79133 8.99883 3.6068 8.83242 3.58051 8.80892C3.44568 8.68908 3.2536 8.65692 3.08638 8.72567C3.03939 8.745 2.99671 8.77133 2.95949 8.80317C2.56063 9.09617 0.385625 10.8059 0.256141 13.1157C0.146435 15.0808 1.53526 16.8082 2.13611 17.4589L1.54984 18.0417C1.36583 18.2247 1.36583 18.5212 1.54984 18.7043C1.73373 18.8869 2.03213 18.8871 2.21615 18.7043L2.80228 18.1214C3.45402 18.7171 5.1946 20.1037 7.17543 19.9943C9.48942 19.8661 11.2047 17.7207 11.5096 17.3118C11.5435 17.2737 11.5715 17.2296 11.5918 17.1806C11.6609 17.0143 11.6281 16.8234 11.5073 16.6893C11.4838 16.6634 11.3163 16.4797 11.036 16.228C13.3108 16.057 14.9913 13.9552 15.2927 13.5508ZM14.4653 7.8634C16.0323 7.77642 17.4955 8.96242 18.0901 9.51733C17.5693 10.1275 16.2644 11.4519 14.6872 11.5394C13.1271 11.6254 11.6701 10.5037 11.0697 9.96983C11.5928 9.33258 12.9013 7.94987 14.4653 7.8634ZM10.7949 2.26481C11.3531 2.85593 12.546 4.31066 12.4587 5.86849C12.3713 7.42322 10.9806 8.72417 10.3395 9.24417C9.80333 8.64808 8.67433 7.19914 8.761 5.6479C8.84892 4.07972 10.181 2.78258 10.7949 2.26481ZM7.01406 6.02362C7.57222 6.61448 8.76508 8.06922 8.67775 9.62725C8.5905 11.1819 7.19978 12.4827 6.55872 13.0029C6.02242 12.4068 4.8936 10.9578 4.98014 9.40675C5.06811 7.8384 6.4002 6.54125 7.01406 6.02362ZM2.77561 16.7639C2.23931 16.1678 1.11049 14.7188 1.19703 13.1677C1.28501 11.5994 2.6171 10.3022 3.23096 9.78458C3.78912 10.3755 4.98196 11.8302 4.89464 13.3882C4.80745 14.9429 3.41667 16.2438 2.77561 16.7639ZM7.12325 19.0591C5.56328 19.1451 4.10626 18.0237 3.50568 17.4897C4.02896 16.8523 5.33749 15.4699 6.90123 15.3832C8.46835 15.2962 9.93158 16.4822 10.5261 17.0372C10.0052 17.6473 8.7005 18.9716 7.12325 19.0591ZM10.9063 15.2981C9.34642 15.3841 7.88937 14.2626 7.28878 13.7287C7.81207 13.0912 9.12058 11.7089 10.6843 11.6222C12.2514 11.5352 13.7147 12.7211 14.3092 13.2762C13.7883 13.8863 12.4836 15.2106 10.9063 15.2981Z" fill="#D09B17"/>
<path d="M15.1172 5.02874C15.285 5.19592 15.557 5.1958 15.7246 5.02874L17.2885 3.46998C17.4563 3.3028 17.4563 3.03182 17.2885 2.86464C17.1208 2.69746 16.8489 2.69746 16.6812 2.86464L15.1172 4.4234C14.9497 4.59046 14.9496 4.86156 15.1172 5.02874Z" fill="#D09B17"/>
<path d="M18.4132 1.83106C18.5809 1.99823 18.8527 1.99823 19.0205 1.83106L19.0247 1.82692C19.1924 1.65975 19.1924 1.38876 19.0247 1.22157C18.857 1.0544 18.5851 1.0544 18.4173 1.22157L18.4132 1.22571C18.2454 1.39289 18.2454 1.66388 18.4132 1.83106Z" fill="#D09B17"/>
<path d="M13.3531 3.55293C13.5208 3.72012 13.7927 3.72012 13.9605 3.55293L15.1149 2.40232C15.2826 2.23525 15.2826 1.96414 15.1149 1.79697C14.9471 1.62979 14.6751 1.62991 14.5076 1.79697L13.3532 2.94747C13.1855 3.11466 13.1854 3.38576 13.3531 3.55293Z" fill="#D09B17"/>
<path d="M16.2143 0.734872C16.3821 0.902042 16.654 0.902042 16.8217 0.734872L16.8258 0.730726C16.9936 0.563554 16.9936 0.292566 16.8258 0.125386C16.6581 -0.0417952 16.3862 -0.0417952 16.2185 0.125386L16.2143 0.129522C16.0466 0.296702 16.0466 0.567691 16.2143 0.734872Z" fill="#D09B17"/>
<path d="M16.6514 6.81222C16.8192 6.97939 17.0911 6.97939 17.2588 6.81222L18.4133 5.66159C18.5809 5.49454 18.581 5.22343 18.4133 5.05625C18.2455 4.88907 17.9735 4.88919 17.8059 5.05625L16.6515 6.20676C16.4839 6.37393 16.4837 6.64504 16.6514 6.81222Z" fill="#D09B17"/>
<path d="M19.5128 4.02173C19.6804 4.18891 19.9524 4.18891 20.1201 4.02173L20.1242 4.01759C20.2919 3.85041 20.2919 3.57944 20.1242 3.41225C19.9564 3.24507 19.6846 3.24507 19.5169 3.41225L19.5128 3.41639C19.345 3.58357 19.345 3.85454 19.5128 4.02173Z" fill="#D09B17"/>
</g>
<defs>
<clipPath id="clip0_104_305">
<rect width="20" height="20" fill="white" transform="translate(0.25)"/>
</clipPath>
</defs>
</svg>
