<svg width="21" height="20" viewBox="0 0 21 20" fill="none" xmlns="http://www.w3.org/2000/svg">
<g clip-path="url(#clip0_104_291)">
<path d="M17.2984 8.10003L17.4001 8.02988L17.2984 8.10002L12.0627 0.243599V0.243557C11.8464 -0.0811856 11.3963 -0.0811855 11.1801 0.243557L11.18 0.243601L5.94435 8.09979C4.11452 10.8455 4.26336 14.5569 6.30593 17.1273C9.0846 20.6242 14.1582 20.6242 16.9366 17.1273L17.0314 17.2053L16.9366 17.1273C18.9791 14.5569 19.1283 10.8457 17.2984 8.10003Z" fill="#FFC700" stroke="#FFC700" stroke-width="0.225"/>
<path d="M5.68175 9.10383C3.07945 13.4385 7.08021 19.07 11.394 17.1056C17.6405 14.2607 16.854 7.88239 15.1219 5.13105L12.2036 0.496182C11.9341 0.0680043 11.3684 0.0680043 11.0989 0.496182C11.0989 0.496182 5.71165 9.05367 5.68175 9.10383Z" fill="#FFDA44"/>
<path d="M11.9334 8.37525C12.6121 6.79805 12.19 3.20213 11.4571 2.91074C10.4261 2.50074 8.417 5.76538 8.04674 6.36713C7.29353 7.59098 6.45004 10.4431 7.72883 11.2958C9.48092 12.4643 10.844 10.9067 11.9334 8.37525Z" fill="#FEEA97"/>
</g>
<defs>
<clipPath id="clip0_104_291">
<rect width="20" height="20" fill="white" transform="translate(0.5)"/>
</clipPath>
</defs>
</svg>
