<svg width="113" height="48" viewBox="0 0 113 48" fill="none" xmlns="http://www.w3.org/2000/svg">
<path fill-rule="evenodd" clip-rule="evenodd" d="M7.06486 17.3877C5.94316 16.3611 5.17722 14.6952 5.02711 12.0041C4.99635 11.4527 5.45192 10.9985 6.00412 11.0082C7.67924 11.0375 8.96207 11.1521 9.94171 11.441C10.3615 10.3525 11.1989 9.32463 12.4538 8.38562C12.777 8.14376 13.2232 8.14376 13.5464 8.38562C14.8116 9.33232 15.6523 10.3694 16.0687 11.4678C17.0775 11.1287 18.3706 11.0298 19.9987 11.0064C20.5509 10.9985 21.0039 11.4527 20.9731 12.0041C20.823 14.6952 20.0571 16.3611 18.9354 17.3876C19.4831 17.7956 19.8006 18.4803 19.6841 19.2206C19.407 20.9801 18.9287 23.6896 18.1761 27.0001H12.0001V29.0001H17.7047C16.9538 32.0756 15.9841 35.5555 14.7474 39.2091C14.1644 40.9315 11.8359 40.9315 11.2529 39.2091C10.7674 37.7747 10.323 36.367 9.91682 35.0001H12.0001V33.0001H9.34097C8.39526 29.6087 7.69131 26.5304 7.17994 24.0001H11.0001V22.0001H6.79304C6.59275 20.9155 6.43577 19.9796 6.31624 19.2206C6.19966 18.4803 6.51718 17.7956 7.06486 17.3877ZM14.1986 12.1767L14.881 13.977L16.706 13.3635C17.2092 13.1944 17.89 13.0934 18.8598 13.0426C18.563 14.9747 17.8476 15.7907 17.1955 16.2125C16.264 16.8149 14.9068 16.9982 13.03 17.0001H12.9702C11.0935 16.9982 9.73623 16.8149 8.80471 16.2125C8.15323 15.7911 7.43859 14.9762 7.14128 13.0481C8.14201 13.1028 8.85431 13.2055 9.37596 13.3593L11.1443 13.8808L11.8077 12.1608C11.9984 11.6665 12.3666 11.1116 13.0001 10.5266C13.6403 11.1178 14.0096 11.6783 14.1986 12.1767Z" fill="white"/>
<path fill-rule="evenodd" clip-rule="evenodd" d="M33.7071 13.707C31.7342 15.6799 31.542 18.4344 32.6508 21.0273C37.5055 17.8489 43 21.7797 43 27.9999C43 33.5227 38.0751 37.9999 32 37.9999C25.9249 37.9999 21 33.5227 21 27.9999C21 22.2076 25.7646 18.4005 30.3403 20.4707C29.559 17.6702 29.9635 14.6221 32.2929 12.2928L33.7071 13.707ZM39.9701 30.2424C40.1041 29.7066 39.7783 29.1637 39.2425 29.0297C38.7067 28.8958 38.1638 29.2215 38.0299 29.7573C37.6194 31.399 36.3992 32.6193 34.7575 33.0297C34.2217 33.1637 33.8959 33.7066 34.0299 34.2424C34.1638 34.7782 34.7067 35.104 35.2425 34.97C37.6008 34.3804 39.3806 32.6007 39.9701 30.2424Z" fill="white"/>
<path d="M34 18C37 18 39 16 39 13C36 13 34 15 34 18Z" fill="white"/>
<path d="M57.4941 18.1113C57.9922 18.1113 58.2793 17.8066 58.2793 17.2852V12.293H58.3262L60.418 17.4141C60.5645 17.7773 60.8105 17.9473 61.1855 17.9473C61.5547 17.9473 61.7891 17.7832 61.9414 17.4082L64.0332 12.293H64.0801V17.2852C64.0801 17.8066 64.3672 18.1113 64.8652 18.1113C65.3633 18.1113 65.6562 17.8066 65.6562 17.2852V10.5703C65.6562 9.84961 65.2344 9.42773 64.5195 9.42773C63.8984 9.42773 63.5527 9.69141 63.2949 10.3418L61.2031 15.5391H61.1562L59.0586 10.3418C58.8008 9.68555 58.4609 9.42773 57.8457 9.42773C57.125 9.42773 56.7031 9.85547 56.7031 10.5703V17.2852C56.7031 17.8066 56.9961 18.1113 57.4941 18.1113ZM70.3496 18.1113C70.9062 18.1113 71.2344 17.7715 71.2344 17.1914V14.8418L73.8125 10.8516C73.9414 10.6465 74 10.4531 74 10.248C74 9.7793 73.625 9.42773 73.127 9.42773C72.7754 9.42773 72.5469 9.58594 72.3242 9.97266L70.3848 13.1543H70.3438L68.4102 9.97266C68.1758 9.56836 67.9707 9.42773 67.5898 9.42773C67.0801 9.42773 66.7051 9.7793 66.7051 10.2598C66.7051 10.459 66.7578 10.6582 66.8867 10.8574L69.4648 14.8418V17.1914C69.4648 17.7715 69.793 18.1113 70.3496 18.1113ZM78.3066 18.1113C78.8633 18.1113 79.1914 17.7715 79.1914 17.1914V14.6719H81.9746C82.4375 14.6719 82.7305 14.4082 82.7305 13.9688C82.7305 13.5352 82.4316 13.2715 81.9746 13.2715H79.1914V11.0098H82.2617C82.7422 11.0098 83.0645 10.7344 83.0645 10.2773C83.0645 9.82031 82.748 9.54492 82.2617 9.54492H78.3066C77.75 9.54492 77.4219 9.88477 77.4219 10.4648V17.1914C77.4219 17.7715 77.75 18.1113 78.3066 18.1113ZM87.8223 18.1406C90.3242 18.1406 91.9004 16.4648 91.9004 13.7754C91.9004 11.0801 90.3242 9.39844 87.8223 9.39844C85.3145 9.39844 83.7441 11.0801 83.7441 13.7754C83.7441 16.4648 85.3145 18.1406 87.8223 18.1406ZM87.8223 16.6641C86.4336 16.6641 85.5488 15.5449 85.5488 13.7754C85.5488 12 86.4395 10.875 87.8223 10.875C89.2051 10.875 90.0898 12 90.0898 13.7754C90.0898 15.5449 89.2051 16.6641 87.8223 16.6641ZM96.8574 18.1406C99.3594 18.1406 100.936 16.4648 100.936 13.7754C100.936 11.0801 99.3594 9.39844 96.8574 9.39844C94.3496 9.39844 92.7793 11.0801 92.7793 13.7754C92.7793 16.4648 94.3496 18.1406 96.8574 18.1406ZM96.8574 16.6641C95.4688 16.6641 94.584 15.5449 94.584 13.7754C94.584 12 95.4746 10.875 96.8574 10.875C98.2402 10.875 99.125 12 99.125 13.7754C99.125 15.5449 98.2402 16.6641 96.8574 16.6641ZM102.963 18H105.307C107.844 18 109.338 16.4238 109.338 13.7402C109.338 11.0566 107.844 9.54492 105.307 9.54492H102.963C102.406 9.54492 102.078 9.88477 102.078 10.4648V17.0742C102.078 17.6602 102.406 18 102.963 18ZM103.848 16.5352V11.0039H105.096C106.654 11.0039 107.533 11.9766 107.533 13.7461C107.533 15.5742 106.678 16.5352 105.096 16.5352H103.848Z" fill="white" fill-opacity="0.72"/>
<path d="M58.4321 37H61.769C65.3799 37 67.5132 34.7671 67.5132 30.9404C67.5132 27.1221 65.3882 25.022 61.769 25.022H58.4321C57.4692 25.022 56.9048 25.603 56.9048 26.6157V35.4062C56.9048 36.4189 57.4692 37 58.4321 37ZM59.9512 34.543V27.479H61.3706C63.2964 27.479 64.417 28.6992 64.417 30.9487C64.417 33.3394 63.3545 34.543 61.3706 34.543H59.9512ZM71.1981 37.1826C72.161 37.1826 72.7171 36.6099 72.7171 35.5972V26.4248C72.7171 25.4121 72.161 24.8394 71.1981 24.8394C70.2352 24.8394 69.6707 25.4121 69.6707 26.4248V35.5972C69.6707 36.6099 70.2352 37.1826 71.1981 37.1826ZM76.4103 37.1826C77.2238 37.1826 77.6803 36.7676 77.9708 35.7549L78.3776 34.4766H82.4782L82.8849 35.8047C83.1505 36.7842 83.6071 37.1826 84.487 37.1826C85.3751 37.1826 86.0143 36.5767 86.0143 35.7217C86.0143 35.4062 85.9562 35.124 85.8151 34.7339L82.8351 26.6157C82.3786 25.3706 81.6481 24.8394 80.3947 24.8394C79.2077 24.8394 78.4689 25.3955 78.0289 26.6157L75.0739 34.7339C74.9411 35.0991 74.858 35.4727 74.858 35.73C74.858 36.6348 75.4474 37.1826 76.4103 37.1826ZM78.9835 32.1772L80.3449 27.562H80.4113L81.8141 32.1772H78.9835ZM89.6909 37.1909C90.6538 37.1909 91.2099 36.6099 91.2099 35.6055V32.8081H92.9531L94.7295 36.0039C95.2441 36.9336 95.5595 37.1909 96.2983 37.1909C97.1865 37.1909 97.8173 36.6099 97.8173 35.8047C97.8173 35.4478 97.7592 35.1987 97.4936 34.7588L96.0244 32.2603C97.2446 31.646 97.8921 30.3843 97.8921 28.9731C97.8921 26.4995 96.2817 25.022 93.2934 25.022H89.6909C88.728 25.022 88.1635 25.603 88.1635 26.6157V35.6055C88.1635 36.6099 88.728 37.1909 89.6909 37.1909ZM91.2099 30.7246V27.3213H92.9863C94.0737 27.3213 94.7793 28.0103 94.7793 29.0312C94.7793 30.0688 94.1152 30.7246 92.9946 30.7246H91.2099ZM104.706 37.1826C105.669 37.1826 106.225 36.6099 106.225 35.5972V32.8828L109.753 27.313C109.977 26.9644 110.077 26.624 110.077 26.2588C110.077 25.4453 109.438 24.8394 108.574 24.8394C107.969 24.8394 107.57 25.1133 107.18 25.8105L104.764 30.0024H104.706L102.291 25.8105C101.884 25.0801 101.527 24.8394 100.863 24.8394C99.9749 24.8394 99.3274 25.4453 99.3274 26.2837C99.3274 26.6323 99.427 26.981 99.6429 27.3213L103.179 32.8828V35.5972C103.179 36.6099 103.735 37.1826 104.706 37.1826Z" fill="white"/>
</svg>
