<svg width="21" height="20" viewBox="0 0 21 20" fill="none" xmlns="http://www.w3.org/2000/svg">
<g clip-path="url(#clip0_104_263)">
<path d="M0.962419 15.8778C0.724008 15.7253 0.678165 15.394 0.866305 15.1833L2.50728 13.3455C2.79551 13.0228 3.27006 12.9486 3.64169 13.1718C6.02283 14.6018 8.86838 16.4476 10.2983 17.3843C10.7766 17.6978 10.8513 18.3685 10.4577 18.7816L9.67042 19.6079L9.49975 19.6988C8.63338 20.1593 7.58645 20.116 6.75665 19.585L0.962419 15.8778Z" fill="#00838F"/>
<path d="M4.9577 8.73459C4.9577 8.73459 6.66609 6.82664 7.0961 6.38454C7.19256 6.28536 7.29858 6.2057 7.405 6.14182C7.84318 5.87875 8.37881 6.04184 8.80728 6.32407L15.6848 10.8543C16.1507 11.1611 16.2394 11.8113 15.8727 12.2301L14.7516 13.5102L14.3067 13.6764C13.6369 13.9268 12.888 13.8451 12.2843 13.4562L4.9577 8.73459Z" fill="#00838F"/>
<path d="M10.3172 2.18278L12.2196 0.218694C12.7296 -0.226029 13.7357 0.259048 13.9196 0.367187C16.7873 2.05366 19.5222 4.13672 20.5256 4.9221C20.742 5.0915 20.7566 5.41089 20.561 5.60273L18.9792 7.15428C18.6714 7.45609 18.1951 7.49906 17.8369 7.25732L10.3172 2.18278Z" fill="#00838F"/>
<path d="M4.79554 11.6574C4.18484 10.6614 4.27107 9.38934 5.03209 8.50509C5.9846 7.39837 7.13056 6.12339 7.12986 6.39623C7.12891 6.75963 9.85592 11.7312 11.7171 14.5889C12.4179 15.6652 12.5167 17.1345 11.6195 18.0512C10.9535 18.7317 10.2338 19.3257 9.67042 19.6073L4.79554 11.6574Z" fill="#00BCD4"/>
<path d="M9.83684 5.54432C9.24609 4.55391 9.34243 3.30436 10.0933 2.43121C11.0497 1.31924 12.2117 0.0245689 12.2109 0.299304C12.21 0.6519 14.7773 5.34268 16.6299 8.23165C17.3703 9.38625 17.1983 10.9735 16.2759 11.9861C15.8505 12.453 14.9018 13.4358 14.7513 13.5105C14.6403 13.5656 11.4842 8.30609 9.83684 5.54432Z" fill="#00BCD4"/>
<path d="M2.55679 9.4455L6.70643 5.88867L9.16233 10.4617L5.60551 14.0186L2.55679 9.4455Z" fill="white" fill-opacity="0.12"/>
<path d="M8.65414 3.34792L11.7028 -0.717041L14.2434 4.36415L11.1947 7.921L8.65414 3.34792Z" fill="white" fill-opacity="0.12"/>
<path d="M5.60553 19.6085L8.14612 17.0679L9.83275 19.9775L7.63801 20.1166L5.60553 19.6085Z" fill="white" fill-opacity="0.07"/>
<path d="M11.1948 13.0024L13.2274 10.97L14.7518 13.5106L13.7356 14.0186H13.2274L11.1948 13.0024Z" fill="white" fill-opacity="0.07"/>
</g>
<defs>
<clipPath id="clip0_104_263">
<rect width="20" height="20" fill="white" transform="translate(0.75)"/>
</clipPath>
</defs>
</svg>
